<svg width="28" height="28" fill="none" xmlns="http://www.w3.org/2000/svg"><path fill-rule="evenodd" clip-rule="evenodd" d="M13.867 18.86c-.255 0-.51-.087-.717-.26l-6.716-5.597a1.119 1.119 0 111.433-1.72l6.012 5.011 6.002-4.83a1.12 1.12 0 011.404 1.744l-6.716 5.404a1.12 1.12 0 01-.702.248z" fill="#000"/><mask id="a" maskUnits="userSpaceOnUse" x="6" y="11" width="16" height="8"><path fill-rule="evenodd" clip-rule="evenodd" d="M13.867 18.86c-.255 0-.51-.087-.717-.26l-6.716-5.597a1.119 1.119 0 111.433-1.72l6.012 5.011 6.002-4.83a1.12 1.12 0 011.404 1.744l-6.716 5.404a1.12 1.12 0 01-.702.248z" fill="#fff"/></mask><g mask="url(#a)"><path fill="#00AC4E" d="M.436.949h26.866v26.866H.436z"/></g></svg>