<svg width="26" height="26" fill="none" xmlns="http://www.w3.org/2000/svg"><path fill-rule="evenodd" clip-rule="evenodd" d="M17.402 15.118H9.37L7.645 8.792h12.92l-3.163 6.326zm4.955-7.435a2.094 2.094 0 00-1.793-1H7.07l-.65-2.385a1.055 1.055 0 00-1.018-.777H3.293a1.054 1.054 0 100 2.108h1.304l2.95 10.82c.126.459.542.777 1.018.777h9.488c.4 0 .764-.226.943-.583l3.454-6.908a2.093 2.093 0 00-.093-2.052zM8.037 19.335a1.581 1.581 0 100 3.162 1.581 1.581 0 000-3.162zM17 20.916a1.581 1.581 0 113.162 0 1.581 1.581 0 01-3.162 0z" fill="#fff"/><mask id="a" maskUnits="userSpaceOnUse" x="2" y="3" width="21" height="20"><path fill-rule="evenodd" clip-rule="evenodd" d="M17.402 15.118H9.37L7.645 8.792h12.92l-3.163 6.326zm4.955-7.435a2.094 2.094 0 00-1.793-1H7.07l-.65-2.385a1.055 1.055 0 00-1.018-.777H3.293a1.054 1.054 0 100 2.108h1.304l2.95 10.82c.126.459.542.777 1.018.777h9.488c.4 0 .764-.226.943-.583l3.454-6.908a2.093 2.093 0 00-.093-2.052zM8.037 19.335a1.581 1.581 0 100 3.162 1.581 1.581 0 000-3.162zM17 20.916a1.581 1.581 0 113.162 0 1.581 1.581 0 01-3.162 0z" fill="#fff"/></mask><g mask="url(#a)"><path fill="#fff" d="M.131.358h25.302V25.66H.131z"/></g></svg>