<svg width="34" height="34" fill="none" xmlns="http://www.w3.org/2000/svg"><path fill-rule="evenodd" clip-rule="evenodd" d="M22.615 21.229l-4.23-4.255 4.254-4.23a1 1 0 10-1.41-1.419l-4.255 4.231-4.23-4.254a1 1 0 10-1.419 1.41l4.231 4.254-4.254 4.231a1 1 0 101.41 1.418l4.254-4.23 4.231 4.254a1 1 0 101.418-1.41z" fill="#000"/><mask id="a" maskUnits="userSpaceOnUse" x="11" y="11" width="12" height="12"><path fill-rule="evenodd" clip-rule="evenodd" d="M22.615 21.229l-4.23-4.255 4.254-4.23a1 1 0 10-1.41-1.419l-4.255 4.231-4.23-4.254a1 1 0 10-1.419 1.41l4.231 4.254-4.254 4.231a1 1 0 101.41 1.418l4.254-4.23 4.231 4.254a1 1 0 101.418-1.41z" fill="#fff"/></mask><g mask="url(#a)"><path fill="#C6C6C6" d="M17.018 0L33.94 17.018 16.923 33.941 0 16.923z"/></g></svg>