<svg width="13" height="13" fill="none" xmlns="http://www.w3.org/2000/svg"><path fill-rule="evenodd" clip-rule="evenodd" d="M9.135 11.066a.504.504 0 01-.233-.057L6.337 9.67l-2.565 1.34a.504.504 0 01-.729-.531l.489-2.832-2.073-2.005a.504.504 0 01.278-.859l2.868-.416 1.281-2.58c.17-.341.731-.341.901 0l1.282 2.58 2.868.416a.502.502 0 01.278.86L9.142 7.645l.488 2.832a.503.503 0 01-.495.588z" fill="#000"/><mask id="a" maskUnits="userSpaceOnUse" x="1" y="1" width="11" height="11"><path fill-rule="evenodd" clip-rule="evenodd" d="M9.135 11.066a.504.504 0 01-.233-.057L6.337 9.67l-2.565 1.34a.504.504 0 01-.729-.531l.489-2.832-2.073-2.005a.504.504 0 01.278-.859l2.868-.416 1.281-2.58c.17-.341.731-.341.901 0l1.282 2.58 2.868.416a.502.502 0 01.278.86L9.142 7.645l.488 2.832a.503.503 0 01-.495.588z" fill="#fff"/></mask><g mask="url(#a)"><path fill="#EBEBEB" d="M.3.501h12.074v12.074H.3z"/></g></svg>