<svg width="13" height="13" fill="none" xmlns="http://www.w3.org/2000/svg"><path fill-rule="evenodd" clip-rule="evenodd" d="M9.74 11.066a.504.504 0 01-.233-.057L6.942 9.67l-2.565 1.34a.504.504 0 01-.728-.531l.488-2.832-2.072-2.005a.504.504 0 01.277-.859l2.868-.416 1.282-2.58c.17-.341.73-.341.9 0l1.283 2.58 2.867.416a.502.502 0 01.278.86L9.747 7.645l.489 2.832a.503.503 0 01-.496.588z" fill="#000"/><mask id="a" maskUnits="userSpaceOnUse" x="1" y="1" width="11" height="11"><path fill-rule="evenodd" clip-rule="evenodd" d="M9.74 11.066a.504.504 0 01-.233-.057L6.942 9.67l-2.565 1.34a.504.504 0 01-.728-.531l.488-2.832-2.072-2.005a.504.504 0 01.277-.859l2.868-.416 1.282-2.58c.17-.341.73-.341.9 0l1.283 2.58 2.867.416a.502.502 0 01.278.86L9.747 7.645l.489 2.832a.503.503 0 01-.496.588z" fill="#fff"/></mask><g mask="url(#a)"><path fill="#00AC4E" d="M.905.501h12.074v12.074H.905z"/></g></svg>