<svg width="17" height="14" fill="none" xmlns="http://www.w3.org/2000/svg"><path d="M2.365 13.282h12.713a1.79 1.79 0 001.788-1.789V3.89a1.79 1.79 0 00-1.788-1.789h-3.69a.409.409 0 100 .818h3.69c.538 0 .974.436.974.974v7.603a.973.973 0 01-.974.974H2.365a.973.973 0 01-.974-.974V3.89c0-.539.435-.974.974-.974h5.372L6.371 4.282a.405.405 0 00.289.695c.106 0 .21-.04.29-.12l2.06-2.06a.405.405 0 000-.576L6.95.16a.405.405 0 00-.576 0 .405.405 0 000 .575L7.74 2.101H2.365A1.79 1.79 0 00.576 3.89v7.603c0 .984.801 1.789 1.789 1.789z" fill="#00AC4E"/></svg>