<svg width="15" height="15" fill="none" xmlns="http://www.w3.org/2000/svg"><path d="M14.318 6.818H.682A.682.682 0 000 7.5a7.502 7.502 0 003.566 6.383A.682.682 0 004.091 15h6.818a.682.682 0 00.525-1.117A7.502 7.502 0 0015 7.5a.682.682 0 00-.682-.682z" fill="#fff"/><path d="M12.657 7.896H2.607a.493.493 0 00-.502.482c0 1.906 1.053 3.581 2.629 4.517a.47.47 0 00-.116.308c0 .267.225.483.502.483h5.025a.493.493 0 00.502-.483.47.47 0 00-.116-.308c1.576-.936 2.628-2.61 2.628-4.517a.493.493 0 00-.502-.482z" fill="#343E48"/><path d="M4.8.2a.682.682 0 00-.964 0c-.372.372-.882.881-.881 1.845 0 .965.509 1.474.881 1.846.334.335.482.498.482.882a.682.682 0 001.364 0c0-.965-.51-1.474-.882-1.846-.334-.334-.482-.498-.482-.882 0-.383.148-.547.482-.881A.682.682 0 004.8.2zm3.182 0a.682.682 0 00-.964 0c-.372.372-.882.881-.882 1.845 0 .965.51 1.474.882 1.846.334.335.482.498.482.882a.682.682 0 001.364 0c0-.965-.51-1.474-.882-1.846-.334-.334-.482-.498-.482-.882 0-.383.148-.547.482-.881a.682.682 0 000-.964zm3.182 0a.682.682 0 00-.964 0c-.372.372-.882.881-.882 1.845 0 .965.51 1.474.882 1.846.334.335.482.498.482.882a.682.682 0 001.364 0c0-.965-.51-1.474-.882-1.846-.334-.334-.482-.498-.482-.882 0-.383.148-.547.482-.881a.682.682 0 000-.964z" fill="#fff"/></svg>