<svg width="12" height="16" fill="none" xmlns="http://www.w3.org/2000/svg"><path d="M10.958 9.615a.313.313 0 00-.246-.119h-.795l.156-.287a1.432 1.432 0 00-.025-1.43 1.433 1.433 0 00-1.243-.707h-.182a1.433 1.433 0 00-.185-.967 1.433 1.433 0 00-1.242-.707h-.367c.23-.286.368-.65.368-1.044 0-.813-.584-1.492-1.355-1.64.022-.477.18-1.649 1.175-2.117A.313.313 0 106.75.03C5.42.656 5.233 2.128 5.214 2.714a1.672 1.672 0 00-1.357 1.64c0 .395.138.758.368 1.044H3.83c-.515 0-.98.264-1.243.707a1.433 1.433 0 00-.185.967H2.22c-.515 0-.98.264-1.242.707a1.433 1.433 0 00-.026 1.43l.157.287H.313a.313.313 0 00-.305.385l1.324 5.6c.033.141.16.241.305.241h7.752c.145 0 .271-.1.305-.241l1.323-5.6a.313.313 0 00-.06-.266zm-5.43-6.304a1.045 1.045 0 010 2.087 1.045 1.045 0 010-2.087zM3.125 6.425a.812.812 0 01.704-.401h3.366a.81.81 0 01.606.268h-1.61a.313.313 0 00-.001.627h1.82a.81.81 0 01-.029.153H3.043a.81.81 0 01.083-.647zm-1.61 1.674a.811.811 0 01.704-.401h6.585c.292 0 .555.15.704.4a.811.811 0 01.015.81l-.321.588h-7.38l-.194-.355h1.993a.313.313 0 000-.626h-2.22c0-.144.038-.287.114-.416zm.369 6.997L.709 10.123h2.652l.427 4.973H1.885zm4.723 0h-2.19l-.428-4.973h3.047l-.428 4.973zm2.533 0H7.237l.428-4.973h2.651l-1.175 4.973z" fill="#fff"/><path d="M4.892 8.515H4.72a.313.313 0 000 .627h.173a.313.313 0 000-.627z" fill="#fff"/></svg>