<svg width="9" height="17" fill="none" xmlns="http://www.w3.org/2000/svg"><path d="M8.591 3.304H7.393L7.986.469a.39.39 0 10-.762-.16l-.626 2.995H.389A.39.39 0 000 3.708l.483 12.496a.39.39 0 00.389.374h7.237a.39.39 0 00.389-.374L8.98 3.708a.39.39 0 00-.389-.404zm-7.73 2.51L.794 4.082h5.64l-.361 1.732H.86zm6.873 9.985H1.246L.891 6.593H8.09l-.356 9.206zm.386-9.985H6.868l.362-1.732h.956L8.12 5.814z" fill="#fff"/><path d="M2.04 12.822a.39.39 0 00.374-.404l-.152-3.946a.39.39 0 00-.778.03l.152 3.946a.39.39 0 00.404.374zm.023.571a.39.39 0 00-.374.404l.014.363a.39.39 0 10.778-.03l-.014-.363a.39.39 0 00-.404-.374z" fill="#fff"/></svg>