<svg width="16" height="9" fill="none" xmlns="http://www.w3.org/2000/svg"><path d="M15.001 5.684a9.917 9.917 0 00-1.659-2.282 2.563 2.563 0 00-.638-1.425A3.853 3.853 0 0010.362.755c-.007-.009-.01-.02-.016-.029A1.746 1.746 0 008.924 0H6.371c-.566 0-1.084.264-1.422.726l-.016.03a3.852 3.852 0 00-2.342 1.222c-.37.408-.576.91-.638 1.423A9.872 9.872 0 00.309 5.656a2.21 2.21 0 00.03 2.302c.4.642 1.158 1.022 1.924 1.022.263 0 .527-.045.778-.14l2.424-.969c.309.098.628.157.956.157.059 0 .117-.014.176-.017.26.305.634.488 1.056.488.419 0 .792-.183 1.05-.487.055.002.11.016.165.016.326 0 .645-.061.955-.16l2.45.98c.25.091.512.135.771.135.762 0 1.508-.377 1.913-1.025.44-.706.451-1.587.044-2.274zM5.676 6.6a1.934 1.934 0 01-.196-.098c-.07-.04-.14-.083-.203-.132-.037-.027-.076-.05-.11-.08l-.249-.258-1.357-1.415c-.039-.041-.07-.086-.103-.13-.017-.024-.038-.044-.053-.068-.023-.036-.039-.076-.059-.114-.017-.036-.039-.07-.054-.106-.013-.035-.02-.071-.03-.106-.014-.045-.03-.088-.038-.133-.006-.029-.006-.058-.01-.088-.006-.054-.013-.108-.013-.164 0-.313.11-.627.335-.874a2.554 2.554 0 011.086-.706c.011.064.029.127.047.19.006.024.006.049.014.072l1.38 4.333a1.904 1.904 0 01-.387-.123zm6.405-2.727c-.004.029-.004.058-.01.087-.008.046-.024.089-.037.134-.011.035-.018.07-.031.105-.016.04-.04.077-.059.115-.019.035-.033.071-.054.105-.045.07-.097.137-.156.198l-1.595 1.662a1.956 1.956 0 01-.365.243 1.925 1.925 0 01-.538.198l1.376-4.33c.008-.023.007-.047.014-.07.018-.063.036-.127.047-.192.414.138.792.38 1.086.705.224.248.334.562.335.875 0 .056-.007.11-.013.165z" fill="#fff"/></svg>