<svg width="16" height="16" fill="none" xmlns="http://www.w3.org/2000/svg"><path d="M13.657 2.343A7.948 7.948 0 008 0a7.948 7.948 0 00-5.657 2.343A7.947 7.947 0 000 8a7.95 7.95 0 002.323 5.637.278.278 0 00.395-.392A7.398 7.398 0 01.556 8C.556 3.895 3.896.556 8 .556c4.105 0 7.444 3.34 7.444 7.444 0 4.105-3.34 7.444-7.444 7.444a7.364 7.364 0 01-4.64-1.622.278.278 0 00-.346.434A7.915 7.915 0 008 16a7.948 7.948 0 005.657-2.343A7.948 7.948 0 0016 8a7.948 7.948 0 00-2.343-5.657z" fill="#fff"/><path d="M12.876 6.078a5.238 5.238 0 00-.525-1 .278.278 0 10-.461.31c.188.28.346.58.47.893a.278.278 0 10.516-.203zm-2.689 6.386a.278.278 0 00-.364-.147 4.69 4.69 0 01-6.329-5.605.278.278 0 10-.534-.153 5.246 5.246 0 007.08 6.27.278.278 0 00.147-.365zm1.635-9.8c-.16-.277-.415-.391-.593-.453a.277.277 0 00-.153-.009l-.022.005a.8.8 0 01-.829-.312.278.278 0 00-.126-.097c-.173-.067-.437-.143-.732-.038a2.04 2.04 0 00-1.31 1.475 2.728 2.728 0 00-.383-.393 1.071 1.071 0 00-1.288-.083l-.109.07a.613.613 0 01-.68-.008l-.064-.044a1.074 1.074 0 00-1.291.05 2.689 2.689 0 00-.592.686.278.278 0 00.476.287 2.134 2.134 0 01.493-.563.518.518 0 01.601 0l.065.043c.39.266.898.272 1.294.016l.109-.07a.516.516 0 01.628.042c.52.436.796 1.077.757 1.757a2.145 2.145 0 01-2.024 1.998 2.112 2.112 0 01-1.57-.587 2.11 2.11 0 01-.617-1.955.278.278 0 00-.545-.108 2.706 2.706 0 00-.052.524c0 .74.295 1.43.83 1.94a2.66 2.66 0 001.98.74 2.674 2.674 0 001.757-.772 2.67 2.67 0 00.788-1.654 2.041 2.041 0 002.285.395A2.038 2.038 0 0011.929 4.5c.26-.602.22-1.27-.107-1.836zM11.42 4.28a1.503 1.503 0 01-1.81.831 1.48 1.48 0 01-.893-.761 1.487 1.487 0 01.837-2.066.34.34 0 01.116-.02c.048 0 .1.009.161.028.312.377.802.557 1.285.47a.43.43 0 01.226.18c.239.412.267.9.078 1.338zm2.624 4.238a1.664 1.664 0 00-2.574-1.504 1.237 1.237 0 00-.928-.12 1.247 1.247 0 00-.365 2.247l-.009.152c-.028.488-.057.993-.582 1.892a.278.278 0 00.1.38l1.27.742a.278.278 0 00.38-.1c.405-.694.75-1.002 1.003-1.193a.278.278 0 10-.333-.444c-.38.285-.697.636-1.005 1.12l-.8-.467c.46-.867.495-1.43.521-1.888.094.01.188.01.282 0a1.659 1.659 0 001.247.728 1.25 1.25 0 001.147.765 1.246 1.246 0 00.646-2.31zm-.049 1.413a.69.69 0 01-1.27-.201.278.278 0 00-.285-.219 1.104 1.104 0 01-1.048-.612.278.278 0 00-.33-.142.69.69 0 11.239-1.189.278.278 0 00.358-.003 1.108 1.108 0 011.811 1.059.278.278 0 00.174.314.69.69 0 01.351.993z" fill="#fff"/><path d="M7.872 10.663a.278.278 0 100-.556.278.278 0 000 .556zm-.578-1.111a.278.278 0 100-.555.278.278 0 000 .555zm-.788 1a.278.278 0 100-.555.278.278 0 000 .555zm-.797.388a.278.278 0 100-.555.278.278 0 000 .556zm-.447-1a.278.278 0 100-.555.278.278 0 000 .556zm.944-.5a.278.278 0 100-.555.278.278 0 000 .556zm.3-1a.278.278 0 100-.555.278.278 0 000 .556zm-1.3.5a.278.278 0 100-.555.278.278 0 000 .556z" fill="#fff"/></svg>