<svg width="17" height="15" fill="none" xmlns="http://www.w3.org/2000/svg"><path d="M12.597 3.88c-.355-.333-.666-.813-.995-1.32-.382-.592-.778-1.203-1.307-1.687C9.653.285 8.935 0 8.1 0c-.835 0-1.553.285-2.195.873-.529.484-.925 1.095-1.307 1.686-.33.508-.64.988-.995 1.32C2.256 5.141 0 7.252 0 10.191c0 1.543.722 2.672 2.145 3.357 1.298.625 3.19.916 5.955.916s4.657-.29 5.955-.916c1.424-.685 2.145-1.814 2.145-3.357 0-2.94-2.255-5.05-3.603-6.312zm1.005 8.7c-1.136.548-2.936.813-5.502.813s-4.366-.265-5.502-.812c-1.066-.513-1.541-1.25-1.541-2.39 0-2.47 1.963-4.308 3.263-5.525.45-.421.812-.98 1.161-1.52.346-.534.704-1.086 1.132-1.478.445-.407.917-.597 1.487-.597.57 0 1.042.19 1.487.597.428.392.786.944 1.132 1.479.35.54.71 1.098 1.161 1.52 1.3 1.216 3.264 3.054 3.264 5.524 0 1.14-.476 1.877-1.542 2.39z" fill="#fff"/><path d="M7.238 4.204l-.63-.86c-.441.332-.522 1.028-.634 1.99-.137 1.18-.307 2.65-1.152 3.49l.74.765c1.11-1.106 1.313-2.854 1.461-4.13.056-.479.132-1.135.239-1.277 0 0-.008.01-.024.022zm2.988 1.13c-.112-.962-.193-1.658-.634-1.99l-.63.86c-.016-.013-.023-.022-.024-.022.107.142.183.798.239 1.278.148 1.275.35 3.023 1.461 4.129l.74-.764c-.845-.842-1.015-2.31-1.152-3.49z" fill="#fff"/></svg>