<svg width="15" height="18" fill="none" xmlns="http://www.w3.org/2000/svg"><path d="M7.131 3.941l-.287-.23a.457.457 0 01.01-.724 1.62 1.62 0 00.643-1.258c.012-.498-.2-.968-.581-1.288a.586.586 0 10-.754.897c.147.123.166.28.164.362a.451.451 0 01-.181.354A1.62 1.62 0 005.5 3.33a1.62 1.62 0 00.61 1.294l.286.23a.583.583 0 00.824-.09.586.586 0 00-.09-.823zm2.434.303l-.337-.27a.648.648 0 01-.132-.854.64.64 0 01.145-.154 1.8 1.8 0 00.715-1.398A1.802 1.802 0 009.31.138a.586.586 0 10-.753.897.636.636 0 01-.025.998 1.8 1.8 0 00-.715 1.417 1.8 1.8 0 00.677 1.437l.337.27a.583.583 0 00.824-.089.586.586 0 00-.09-.824zm2.341-.303l-.287-.23a.457.457 0 01-.155-.48.455.455 0 01.165-.244 1.62 1.62 0 00.643-1.258c.012-.498-.2-.968-.581-1.288a.586.586 0 10-.754.897c.147.123.166.28.164.362a.452.452 0 01-.181.354 1.62 1.62 0 00-.644 1.276 1.62 1.62 0 00.609 1.294l.287.23a.584.584 0 00.824-.09.586.586 0 00-.09-.823z" fill="#fff"/><path d="M15 8.182V6.076a.59.59 0 00-.586-.591.611.611 0 00-.5.278H3.788L1.106.611a.587.587 0 00-1.04.545l2.63 5.053v1.973a6.183 6.183 0 003.315 5.476l-1.83 2.738a.586.586 0 00.974.651l.814-1.218 2.312.713v.159a.586.586 0 001.172 0v-.159l2.312-.713.814 1.218a.585.585 0 10.974-.65l-1.837-2.75A6.184 6.184 0 0015 8.181zM3.867 6.935h9.961v.508h-9.96v-.508zm4.414 8.381l-1.632-.504.47-.704c.375.11.763.185 1.162.222v.986zm1.172 0v-.988a6.071 6.071 0 001.157-.228l.476.712-1.633.504zm-.595-2.131h-.005a4.987 4.987 0 01-4.966-4.57h9.922c-.223 2.578-2.359 4.57-4.951 4.57z" fill="#fff"/></svg>