<svg width="15" height="9" fill="none" xmlns="http://www.w3.org/2000/svg"><path d="M12.057 2.06a.97.97 0 01.96-.954c.53 0 .962.412.962.919 0 .507-.431.919-.961.919a.5.5 0 00-.51.489.5.5 0 00.51.489C14.11 3.922 15 3.07 15 2.025S14.11.128 13.018.128c-.995 0-1.82.705-1.961 1.62-.653.222-1.252.33-1.822.33-1.21 0-2.111-.492-3.066-1.012C5.6.753 5.01.431 4.351.221A4.578 4.578 0 002.959 0C1.261 0 .194 1.002.15 1.044a.475.475 0 00-.139.444.498.498 0 00.311.356c1.535.587 2.381 1.575 3.2 2.53.812.948 1.647 1.922 3.086 2.284-.48.42-.946 1.037-.946 1.853a.5.5 0 00.51.489h3.372a.5.5 0 00.51-.524c-.014-.84-.521-1.466-1.02-1.88 1.77-.652 3.023-2.733 3.023-4.537zM6.791 8.022c.23-.51.767-.868 1.066-1.035.298.168.836.527 1.066 1.035H6.79zm3.276-3.39c-.631.772-1.412 1.196-2.2 1.196-1.779 0-2.563-.916-3.557-2.075C3.595 2.919 2.8 1.99 1.524 1.31A3.274 3.274 0 012.959.978a3.5 3.5 0 011.069.172c.563.18 1.084.464 1.635.765 1.028.56 2.091 1.141 3.572 1.141a6.34 6.34 0 001.722-.25 4.4 4.4 0 01-.89 1.828z" fill="#fff"/></svg>