<svg width="15" height="14" fill="none" xmlns="http://www.w3.org/2000/svg"><path d="M15 6.667A.674.674 0 0014.318 6h-.062c-.284-1.506-1.512-2.692-3.059-2.948C10.897 1.322 9.353 0 7.5 0S4.103 1.322 3.803 3.052C2.256 3.308 1.028 4.494.744 6H.682A.674.674 0 000 6.667c0 2.634 1.428 4.947 3.566 6.24a.655.655 0 00-.157.426c0 .368.305.667.682.667h6.818a.674.674 0 00.682-.667.655.655 0 00-.157-.425C13.572 11.614 15 9.3 15 6.667zM4.432 4.333a.674.674 0 00.682-.666c0-1.287 1.07-2.334 2.386-2.334S9.886 2.38 9.886 3.667c0 .368.306.666.682.666 1.08 0 1.993.704 2.287 1.667h-3.31a.657.657 0 00.137-.933.692.692 0 00-.955-.134l-.545.4V3.867A.674.674 0 007.5 3.2a.674.674 0 00-.682.667v1.466l-.545-.4a.692.692 0 00-.955.134.657.657 0 00.137.933h-3.31a2.384 2.384 0 012.287-1.667zM7.5 12.667c-3.153 0-5.758-2.338-6.099-5.334H13.6c-.34 2.996-2.946 5.334-6.099 5.334z" fill="#fff"/></svg>