<svg width="17" height="16" fill="none" xmlns="http://www.w3.org/2000/svg"><path d="M5.2 5.072a.283.283 0 00.4 0c.11-.11.11-.29 0-.4a.74.74 0 010-1.044c.246-.247.382-.574.382-.923 0-.348-.136-.676-.382-.922a.283.283 0 10-.4.4.733.733 0 010 1.044 1.306 1.306 0 000 1.845zm6.233 0a.282.282 0 00.4 0 .282.282 0 000-.4.74.74 0 010-1.044c.247-.247.383-.574.383-.923 0-.348-.136-.676-.383-.922a.283.283 0 10-.4.4.733.733 0 010 1.044 1.306 1.306 0 000 1.845zM8.316 3.373a.283.283 0 00.4 0 .283.283 0 000-.401.74.74 0 010-1.044c.247-.246.383-.574.383-.922 0-.349-.136-.676-.382-.923a.283.283 0 10-.401.4.733.733 0 010 1.045 1.306 1.306 0 000 1.845zM7.181 7.284c.02 0 .042-.002.063-.007a5.707 5.707 0 011.252-.138H8.5a.283.283 0 100-.567h-.004c-.465 0-.929.052-1.377.152a.283.283 0 00.062.56zm-4.398 4.667a.283.283 0 00.33-.228c.294-1.614 1.267-3.05 2.602-3.841a.283.283 0 00-.289-.488c-1.474.874-2.548 2.454-2.871 4.228a.283.283 0 00.228.33z" fill="#fff"/><path d="M15.76 11.565a7.384 7.384 0 00-5.856-5.99c.005-.046.013-.091.013-.136 0-.782-.636-1.417-1.417-1.417s-1.417.635-1.417 1.417c0 .045.007.09.013.136a7.384 7.384 0 00-5.856 5.99c-.592.336-1.24.829-1.24 1.382 0 1.441 4.395 2.409 8.5 2.409s8.5-.968 8.5-2.409c0-.553-.648-1.046-1.24-1.382zM7.652 5.488a.851.851 0 111.697 0l-.04-.004a7.167 7.167 0 00-.294-.025l-.109-.008a7.409 7.409 0 00-.811 0l-.109.008a7.698 7.698 0 00-.294.025l-.04.004zm-.172.594c.152-.023.305-.039.458-.051l.095-.008c.31-.02.623-.02.934 0l.095.008c.153.012.306.028.459.051a6.815 6.815 0 015.742 6.03c.003.031.008.062.01.094.011.125.02.25.024.376a30.237 30.237 0 01-13.593 0 6.99 6.99 0 01.023-.376l.01-.094a6.814 6.814 0 015.742-6.03zM8.5 14.79c-4.844 0-7.933-1.21-7.933-1.842 0-.108.134-.347.584-.66l-.001.049a7.57 7.57 0 00-.017.47v.223l.218.052c2.338.561 4.744.842 7.149.842 2.405 0 4.81-.28 7.15-.842l.217-.052v-.223a7.3 7.3 0 00-.017-.47c0-.016 0-.032-.002-.048.451.312.585.55.585.66 0 .631-3.09 1.84-7.933 1.84z" fill="#fff"/></svg>