<svg width="15" height="15" fill="none" xmlns="http://www.w3.org/2000/svg"><path d="M9.049.046c-.35-.054-.7-.018-1.048.023-.01 0-.015.005-.024.007-3.064-.622-5.727 2.696-6.67 5.402-1.21 3.47-.205 7.613 3.325 9.062 3.694 1.516 7.572-.91 9.165-4.43C15.607 6.114 13.504.728 9.05.046zm4.229 9.75c-1.342 3.237-4.92 5.466-8.258 4.254-3.448-1.252-4.176-5.175-3.11-8.4a8.585 8.585 0 012.526-3.775C5.596.87 6.98.597 8.43.586c4.332.18 6.442 5.366 4.849 9.21z" fill="#fff"/><path d="M9.914 1.93c-.614-.208-1.271-.265-1.913-.253a.222.222 0 00-.128.043C1.916 1.242.001 12.36 6.3 13.574c3.103.597 5.596-1.679 6.43-4.636.756-2.678-.018-6.061-2.815-7.008zM7.432 13.087c-3.018.126-4.666-2.522-4.464-5.398.21-2.988 2.197-5.054 4.924-5.544a.24.24 0 00.109.028c6.523.108 5.245 10.67-.57 10.914z" fill="#fff"/><path d="M4.662 9.584c-.057-.001-.083-.039-.125-.071a.209.209 0 00-.131-.044c-.049-.001-.062.082-.012.089.104.014.142.134.252.15.089.013.104-.122.016-.124z" fill="#fff"/><path d="M12.117 6.669c-.046-.109-.174-.24-.247-.324-.12-.137-.092-.377-.14-.547-.037-.131-.134-.227-.237-.314.188-.206.236-.488-.03-.831-.113-.148-.472-.357-.51-.539-.037-.175-.055-.301-.162-.443-.178-.237-.729-.094-.963-.127a.118.118 0 00-.122.063.697.697 0 00-.306-.238.109.109 0 00-.015-.04A2.183 2.183 0 008.3 2.425a.153.153 0 00-.16.044c-.173.21-.188.392-.251.622-.19-.012-.442-.037-.585.068-.131.099-.082.314-.153.452-.009.018-.115.02-.236.035-.003-.029-.019-.056-.051-.065-.475-.122-1.111-.214-1.407.307-.154.272-.13.387-.442.45-.152.031-.24.15-.307.284-.213.43-.913.818-.817 1.376.009.05.025.094.044.135a.436.436 0 00-.165.098c-.148.152-.125.361-.061.55-.211.125-.415.314-.48.56-.073.275.332.322.474.415.115.074.236-.095.143-.192a.903.903 0 00-.13-.112.899.899 0 00-.122-.063.364.364 0 00-.028-.02c.103-.17.228-.285.398-.388a.154.154 0 00.066-.17c-.041-.148-.152-.335.037-.39.04-.011.081-.02.122-.03.224.111.527.112.769.065.022.07.048.14.083.21.046.095.175.102.243.033.07-.071.15-.12.239-.164l.003-.001c-.113.201-.23.395-.307.606-.46-.224-.962-.118-1.168.506-.055.167-.278.305-.377.458a1.009 1.009 0 00-.151.55c0 .303.199.52.444.639a.665.665 0 00-.092.185.563.563 0 00.236.618.622.622 0 00.417.102c-.05.24-.145.498-.08.729.067.231.33.25.547.234-.04.512.091 1.086.598 1.293.403.164.806-.016 1.083-.327.017.013.033.027.053.038.233.127.498.035.73-.1.05.155.205.277.514.323.654.098.797-.372.685-.841.15.22.386.357.718.32.468-.055.529-.472.777-.777.065-.08.16-.096.22-.19.054-.086.027-.208-.01-.318.364-.015.597-.26.798-.62.033-.057-.007-.153-.08-.145-.113.014-.165.05-.239.145-.2.258-.306.394-.66.358-.075-.008-.144.087-.118.16.085.232.09.26-.077.387-.154.117-.22.358-.347.497-.235.257-.513.225-.741 0-.217-.216-.241-.573-.2-.875.718-.053 1.384-.65 1.664-1.37.066.014.144.01.204.013.138.007.173-.163.108-.25.03-.098-.095-.199-.187-.115-.008.007-.018.012-.027.018.075-.36.05-.733-.117-1.073a.182.182 0 00.011-.062c-.012-.408.185-.62-.037-1.014-.008-.016-.023-.026-.036-.038.102-.137.214-.238.307-.343-.032.044-.037.105.017.157.01.01.022.017.034.025.02.076-.006.187-.017.25-.018.098-.045.196-.052.298-.004.072.06.126.125.129.214.007.428.005.642.006a.134.134 0 00.13-.135c-.005-.109-.111-.346-.037-.437a.162.162 0 00.033-.132c.005.007.01.015.016.021.477.439.444.926-.101 1.325-.092.067-.117.193-.035.281.225.245.077.479-.056.681-.087-.044-.176-.084-.267-.13-.061-.03-.153-.023-.185.05-.085.193-.103.478-.236.639-.112.136.078.335.191.197.135-.163.167-.376.233-.574.05.024.097.049.144.075.004.128.149.217.25.168l.026.022c-.031.158-.083.32-.26.317-.146-.003-.285-.021-.42.054-.116.065-.036.269.091.223.112-.04.239.013.354.014a.434.434 0 00.367-.19c.116-.168.23-.461.07-.622-.026-.024-.053-.043-.079-.065.188-.374.363-.547.13-.949.397-.343.652-.725.418-1.284zm-2.35-1.15c.018-.406.109-.805.151-1.209.15.108.286.235.357.411.099.244.063.542.027.803-.17.034-.326-.015-.504-.007-.012 0-.022.004-.032.006V5.52zM7.23 3.958c.058.006.11-.037.14-.083a.92.92 0 00.161-.445v-.008c.145-.03.334-.004.47-.005.075 0 .121-.05.148-.117.044-.11.08-.547.313-.438.267.125.487.316.677.54a.501.501 0 00-.106.081c-.146.146-.232.33-.276.528-.019-.047-.064-.085-.114-.084-.22.001-.46-.041-.675.004-.077.016-.104.103-.083.171.034.21-.047.422-.001.626.062.275.421.273.63.274.045 0 .104-.027.123-.073.089-.217.058-.444.088-.665-.017.308.045.633.128.91-.217.098-.55.273-.532.523.017.236.192.369.375.48a.58.58 0 01-.279.025.112.112 0 00-.081.012c-.206-.213-.668-.625-.964-.367a.435.435 0 00-.1.134c-.045-.02-.091-.047-.136-.057.003-.03-.034-.054-.06-.03-.019.017-.029.041-.048.057-.005.004-.007.01-.01.015.1-.418.197-.847.175-1.244-.005-.092-.122-.132-.17-.048a1.915 1.915 0 00-.123.269c-.011-.018-.027-.032-.055-.03-.308.022-.684.26-.726.603-.04.327.227.59.5.717l-.025.152c-.448-.14-.765-.463-.593-.998.169-.523.732-.813 1.23-.825.11-.003.145-.191.027-.21a1.577 1.577 0 00-.464 0c.064-.23.01-.438.436-.394zm1.235.233a.942.942 0 00-.024.15c-.008.125.002.247-.027.367a.56.56 0 01-.224-.036c-.035-.016-.032-.023-.034-.072-.006-.137.001-.267-.01-.4.105.004.213-.003.32-.009zm-1.613.88a6.24 6.24 0 00-.198.94c-.128-.125-.253-.26-.268-.453-.02-.253.293-.372.466-.486zm-1.759.676c-.106-.024-.222.052-.218.173.002.098.012.19.025.279-.119-.002-.257-.004-.377-.033-.008-.06-.05-.113-.118-.108l-.075.006a.27.27 0 01-.065-.095c-.094-.246.388-.593.53-.71.122-.097.194-.353.267-.495.05-.097.325-.112.417-.136.053-.013.111-.066.12-.125.099-.618.524-.769 1.031-.775a.194.194 0 00-.063.06c-.12.196-.108.437-.12.661a1.411 1.411 0 00-.79.84c-.067.18-.082.348-.06.503-.168-.008-.343-.008-.504-.045zm.16.583c-.02-.085-.03-.17-.033-.258.148-.018.303-.017.45-.027a.979.979 0 00.079.14c-.16-.023-.345.05-.496.145zm.293.825c.072-.233.187-.435.242-.674.003-.01.002-.018.002-.026a.376.376 0 00.082-.04.113.113 0 00.037-.042c.202.192.479.322.766.371.079.014.177-.02.194-.114a9.83 9.83 0 01.129-.582.113.113 0 00.03.068.667.667 0 00.18.116c-.015.233.056.498.111.7-.23.205-.503.513-.44.843.058.302.29.422.548.476a1.04 1.04 0 00-.273.338c-.303-.001-.568-.008-.877-.154-.115-.055-.212-.103-.244-.194.004-.01.009-.019.012-.03.014-.04.004-.072-.017-.094l.004-.025c.04-.156.076-.279.087-.44.006-.094-.083-.185-.173-.18-.116.007-.237.007-.32-.031a1.59 1.59 0 00-.08-.076c-.024-.048-.03-.114 0-.21zm.99 2.699a1.27 1.27 0 00-.14.062c-.11-.04-.223-.076-.329-.126-.247-.117-.084-.416-.003-.603.031-.072.02-.15-.049-.193-.195-.127-.345-.237-.17-.451l.01-.011c.369.218.785.425 1.205.389-.018.22.038.448.148.658-.07.008-.147-.006-.209-.01-.1-.009-.185.011-.282.021-.1.01-.185.08-.184.191 0 .026.002.049.003.073zm.366.021l.026-.005c.138-.028.288-.012.414-.073.036.05.075.096.116.142-.205-.003-.327.247-.51.322a.88.88 0 01-.04-.19 2.7 2.7 0 01-.007-.183v-.013zm-2.418.007a.37.37 0 01-.183-.058.226.226 0 01-.098-.115c.01.02-.01-.057-.009-.041a.374.374 0 01.001-.062c-.003.04.01-.025.011-.033l.003-.01.007-.013a.597.597 0 01.134-.193c.077-.08.164-.15.255-.213a.053.053 0 00.04.038c.099.023.186.014.286.009a.287.287 0 01.22.09c-.091.223-.219.434-.432.549a.448.448 0 01-.235.052zm2.003 1.885c-.18.25-.394.46-.733.366-.427-.118-.478-.75-.426-1.11.013-.092-.04-.221-.152-.206-.182.023-.448.104-.438-.155.007-.175.03-.346.032-.52l.044-.017c.324-.144.518-.509.616-.84a.138.138 0 00-.033-.132c-.116-.1-.234-.175-.387-.18a.827.827 0 00-.259.045c.023-.068-.031-.155-.114-.132a1.47 1.47 0 00-.494.226c-.221-.156-.376-.35-.31-.65.067-.3.354-.445.468-.706.102-.233.24-.452.506-.469a.645.645 0 01.345.092 1.341 1.341 0 00-.02.139c-.004.055.036.131.086.153.182.081.347.118.528.14-.037.168-.089.325-.09.506l.001.003a.87.87 0 00-.192.342c-.054.219.14.385.307.503-.104.231-.203.524-.036.733.098.123.237.176.383.207-.16.142-.279.324-.278.525.003.427.362.603.706.71a1.24 1.24 0 00-.06.427zm1.673.296c-.018-.032-.034-.066-.03-.095a.87.87 0 00.01-.139c.055-.013.053-.105-.011-.105l-.004.001c-.054-.128-.25-.111-.263.054a.52.52 0 00.06.274c-.113-.036-.14-.121-.121-.23a.086.086 0 00.013-.053c.063-.212.272-.484.405-.646.167.321.447.874-.059.94zm.33-.936a1.251 1.251 0 00-.163-.22c-.06-.064-.145-.019-.163.05-.293.162-.61.505-.699.818a2.043 2.043 0 01-.43.068.21.21 0 01-.139-.04c.04-.08.073-.164.096-.248.034-.126-.064-.199-.16-.189l.013-.083c.012-.075-.018-.147-.093-.17-.222-.066-.714-.248-.577-.577.072-.174.234-.284.393-.388.027.129.07.253.14.383.025.046.084.088.137.081a.746.746 0 00.394-.179c.107-.086.282-.202.34-.329.005-.011.005-.022.007-.033.045.04.09.08.138.116.25.19.514.285.775.303a1.56 1.56 0 00-.01.637zm1.442-3.534c.62 1.325-.869 3.337-2.125 2.071-.376-.378-.342-.711-.11-.996.222.586.75 1.007 1.387.782.713-.252.895-1.165.725-1.839a.142.142 0 00-.049-.078c.008-.06-.037-.127-.115-.11-.223.05-.45.098-.677.153-.116-.147-.1-.384-.178-.552-.108-.229-.356-.16-.551-.087a.91.91 0 00-.302.18c-.086.08-.082.153-.053.265a.66.66 0 00.139.24c.046.057.129.112.143.188 0 .005.003.008.005.012a3.07 3.07 0 00-.526.271L7.64 8.09c-.204-.066-.508-.172-.463-.45.037-.227.258-.406.414-.547.04-.035.051-.1.038-.15-.052-.194-.108-.422-.103-.635a.82.82 0 00.245-.018c.052-.013.076-.06.074-.107.152.092.312.224.348.25.05.035.1.023.137-.01.008.005.014.01.024.013.106.03.209.039.319.02.261-.045.419-.109.463.262.01.088.06.148.148.154.265.017.532.01.798.01.06.165.027.32-.013.482-.096-.006-.188.12-.138.228zm-.4.08c0 .006-.002.011-.001.018.08.542.037 1.212-.527 1.457-.513.222-.906-.235-1.12-.667.444-.374 1.197-.647 1.647-.809zm-1.184.083c-.023-.166-.17-.276-.2-.44.13-.11.285-.174.45-.21.094.15.094.354.172.519a5.556 5.556 0 00-.422.13zm1.541-1.27a.193.193 0 00-.028.07c-.155 0-.311 0-.466.006-.055-.186-.129-.355-.326-.42a.332.332 0 00-.098-.016l-.006-.008c-.11-.112-.226-.223-.312-.358-.065-.103.393-.344.447-.378.07-.045.084-.128.05-.202a1.8 1.8 0 01-.072-1.272c.157-.491.43-.235.616.057a.14.14 0 00-.037.091c0 .491-.083.975-.084 1.465 0 .068.052.1.103.095a.154.154 0 00.056.155c.167.131.431.131.64.075-.047.266-.343.43-.483.64zm.658-1.882c-.122-.288-.36-.472-.611-.632a2.378 2.378 0 00-.11-.196c.396.046.929-.113.838.5-.012.08.008.151.077.196.207.134.383.273.512.49.086.146.062.246-.014.317-.059-.014-.127.023-.14.082a1.672 1.672 0 01-.478.082c.028-.283.036-.579-.074-.84zm.285 2.25c.013-.11.035-.226.033-.336l.058.005c.06.002.165-.015.245-.003-.022.107.004.215.024.33-.12 0-.24.002-.36.004zm.612-.48c-.004-.006-.006-.013-.012-.018-.093-.082-.2-.1-.319-.106-.081-.004-.257.032-.326-.024a.133.133 0 00-.173.003.64.64 0 00.163-.39c.166-.03.335-.088.479-.17.118.15.23.27.184.606a.244.244 0 00.005.1z" fill="#fff"/></svg>