<svg width="38" height="42" fill="none" xmlns="http://www.w3.org/2000/svg"><path d="M37.834 32.75l-1.19-10.934a2.718 2.718 0 00-2.706-2.428h-.867v-1.99a4.773 4.773 0 00-4.768-4.768 4.773 4.773 0 00-4.768 4.768v1.99h-.867a2.718 2.718 0 00-2.706 2.427L18.77 32.75a2.723 2.723 0 002.706 3.017H35.13a2.723 2.723 0 002.706-3.017zm-2.705 1.656H21.477a1.36 1.36 0 01-1.353-1.508l1.19-10.935a1.36 1.36 0 011.354-1.214h.867v1.718a.68.68 0 001.36 0v-5.069a3.41 3.41 0 013.408-3.407 3.41 3.41 0 013.407 3.407v1.99h-4.307a.68.68 0 000 1.361h4.307v1.718a.68.68 0 001.36 0v-1.718h.868c.696 0 1.278.522 1.353 1.214l1.19 10.935a1.36 1.36 0 01-1.352 1.508zm-4.444 3.913a.68.68 0 00-.68.68c0 .75-.611 1.361-1.362 1.361H2.954c-.75 0-1.36-.61-1.36-1.36V3.613c0-.75.61-1.361 1.36-1.361h19.14V7.44a2.724 2.724 0 002.721 2.722h5.87a.681.681 0 00.48-1.161C22.648.482 23.199.962 22.908.905c-.094-.019.99-.013-19.953-.013A2.725 2.725 0 00.232 3.614v35.385a2.725 2.725 0 002.722 2.722h25.69c1.5 0 2.721-1.22 2.721-2.722a.68.68 0 00-.68-.68zm-5.87-29.517c-.75 0-1.36-.61-1.36-1.36V3.214l5.587 5.587h-4.227zm-13.77 2.127a2.04 2.04 0 00-2.041-2.045H7.63a2.044 2.044 0 00-2.041 2.041v1.368c0 1.126.916 2.042 2.041 2.042h1.371c1.123 0 2.04-.914 2.042-2.038l.002-1.368zm-1.364 1.366a.681.681 0 01-.68.679h-1.37a.681.681 0 01-.681-.68v-1.369a.68.68 0 01.68-.68h1.374a.68.68 0 01.68.682l-.003 1.368zm1.354 8.841a2.044 2.044 0 00-2.041-2.041H7.633a2.044 2.044 0 00-2.042 2.041v1.361c0 1.126.916 2.042 2.042 2.042h1.36a2.044 2.044 0 002.042-2.042v-1.36zm-1.36 1.361a.68.68 0 01-.681.68H7.633a.681.681 0 01-.68-.68v-1.36a.68.68 0 01.68-.681h1.36a.68.68 0 01.681.68v1.361zm-.681 6.805H7.633a2.044 2.044 0 00-2.042 2.042v1.36c0 1.127.916 2.042 2.042 2.042h1.36a2.044 2.044 0 002.042-2.041v-1.361a2.044 2.044 0 00-2.041-2.042zm.68 3.403a.68.68 0 01-.68.68H7.633a.681.681 0 01-.68-.68v-1.361a.68.68 0 01.68-.68h1.36a.68.68 0 01.681.68v1.36zm9.368-20.415h-4.679a.68.68 0 010-1.361h4.679a.68.68 0 010 1.36zm-1.957 10.207h-2.722a.68.68 0 010-1.36h2.722a.68.68 0 010 1.36zm-1.02 8.847a.68.68 0 010 1.36h-1.702a.68.68 0 010-1.36h1.701z" fill="#00AC4E"/></svg>