<svg width="18" height="14" fill="none" xmlns="http://www.w3.org/2000/svg"><path d="M5.717 13.779A.872.872 0 015.1 12.29l6.587-6.588a.872.872 0 011.232 1.233l-6.587 6.588a.869.869 0 01-.616.255z" fill="#fff"/><path d="M13.53 8.745a3.634 3.634 0 01-2.59-1.06c-1.454-1.455-1.405-3.87.11-5.385.984-.984 2.644-1.67 4.037-1.67.878 0 1.613.27 2.125.782 1.585 1.585.515 4.758-.888 6.161a3.933 3.933 0 01-2.794 1.172zm1.557-6.372c-.922 0-2.154.509-2.804 1.16-.835.835-.885 2.144-.11 2.919.354.354.836.55 1.357.55.58 0 1.135-.235 1.562-.661 1.006-1.007 1.504-3.08.887-3.696-.225-.225-.61-.272-.892-.272zm-2.022 11.563a.869.869 0 01-.617-.255L6.082 7.315a.872.872 0 011.233-1.233l6.366 6.366a.872.872 0 01-.616 1.488z" fill="#fff"/><path d="M4.47 8.872a2.36 2.36 0 01-1.678-.695L.255 5.64a.872.872 0 011.233-1.233l2.537 2.537a.626.626 0 00.892 0l2.027-2.028a.626.626 0 00.185-.445.626.626 0 00-.185-.446L4.407 1.488A.872.872 0 015.64.255l2.537 2.537c.448.449.695 1.045.695 1.679 0 .634-.247 1.23-.695 1.678L6.149 8.177a2.358 2.358 0 01-1.678.695z" fill="#fff"/><path d="M6.145 7.017a.87.87 0 01-.616-.256L2.346 3.578a.872.872 0 011.233-1.232l3.183 3.183a.872.872 0 01-.617 1.488z" fill="#fff"/></svg>