<svg width="16" height="14" fill="none" xmlns="http://www.w3.org/2000/svg"><path d="M15.452 6.688h-.658l-.94-2.976a.551.551 0 00-.52-.394H11.74V.574A.562.562 0 0011.193 0H.548A.562.562 0 000 .574v10.058c0 .317.245.575.548.575h.53a2.678 2.678 0 00-.014.263c0 1.395 1.082 2.53 2.412 2.53 1.329 0 2.41-1.135 2.41-2.53 0-.09-.004-.177-.013-.264h4.786a2.697 2.697 0 00-.014.264c0 1.395 1.082 2.53 2.412 2.53 1.33 0 2.41-1.135 2.41-2.53 0-.09-.004-.177-.013-.264a.562.562 0 00.546-.574v-3.37a.562.562 0 00-.548-.574zm-2.514-2.22l.701 2.22h-1.898v-2.22h1.197zM3.476 12.85c-.726 0-1.316-.62-1.316-1.381s.59-1.38 1.316-1.38c.725 0 1.314.619 1.314 1.38 0 .761-.59 1.38-1.314 1.38zm7.17-2.794H5.474c-.434-.673-1.168-1.117-2-1.117-.83 0-1.565.444-1.999 1.117h-.38V1.15h9.55v8.908zm2.41 2.794c-.725 0-1.315-.62-1.315-1.381s.59-1.38 1.316-1.38c.725 0 1.315.619 1.315 1.38 0 .761-.59 1.38-1.315 1.38zm0-3.911c-.484 0-.936.152-1.315.411V7.837h3.163v2.01a2.363 2.363 0 00-1.847-.907z" fill="#fff"/></svg>