<svg width="16" height="11" fill="none" xmlns="http://www.w3.org/2000/svg"><path d="M0 0v10.046h16V0H0zm1.116 1.116h1.795a2.426 2.426 0 01-1.795 1.795V1.116zm0 7.814V7.136c.886.21 1.585.908 1.795 1.794H1.116zm13.768 0h-1.795a2.426 2.426 0 011.795-1.794V8.93zm0-2.932A3.543 3.543 0 0011.95 8.93h-7.9a3.543 3.543 0 00-2.933-2.932v-1.95A3.543 3.543 0 004.05 1.117h7.902a3.543 3.543 0 002.933 2.933v1.949zm0-3.087a2.426 2.426 0 01-1.795-1.795h1.795v1.795z" fill="#fff"/><path d="M8 2.977a2.049 2.049 0 00-2.047 2.046A2.05 2.05 0 008 7.07a2.049 2.049 0 002.046-2.047A2.049 2.049 0 008 2.977zm0 2.976a.931.931 0 010-1.86.931.931 0 010 1.86z" fill="#fff"/></svg>