<svg width="14" height="14" fill="none" xmlns="http://www.w3.org/2000/svg"><path d="M13.545 11.45l-2.273-2.27a1.46 1.46 0 00-1.042-.43c-.26 0-.51.069-.73.196l-.733-.733A4.957 4.957 0 009.965 4.98 4.982 4.982 0 000 4.977a4.988 4.988 0 004.983 4.98 4.966 4.966 0 003.235-1.196l.733.733a1.463 1.463 0 00.24 1.77l2.304 2.303c.675.676 1.706.45 2.18-.104.482-.574.419-1.464-.13-2.012zM4.983 9.18a4.178 4.178 0 01-2.72-1.003A2.869 2.869 0 013.875 6.41l.782 1.202a.39.39 0 00.65 0l.784-1.202c.766.323 1.358.97 1.612 1.767a4.193 4.193 0 01-2.72 1.003zm1.063-3.613a.387.387 0 00-.438.16l-.625.959-.623-.96a.387.387 0 00-.438-.159 3.65 3.65 0 00-2.255 1.984A4.166 4.166 0 01.901 5.97h.56a.388.388 0 100-.777H.783C.78 5.12.777 5.05.777 4.974c0-.19.014-.377.039-.559H2.43a.388.388 0 100-.777H.998A4.212 4.212 0 014.983.774a4.21 4.21 0 014.205 4.203c0 .97-.333 1.866-.887 2.577a3.653 3.653 0 00-2.255-1.987zm7.028 7.397c-.267.3-.769.309-1.028.052l-2.304-2.304c-.256-.256-.322-.661 0-.98.342-.343.775-.208.981 0l2.274 2.27c.267.267.311.697.077.962z" fill="#fff"/><path d="M4.983 1.466A1.765 1.765 0 106.747 3.23c0-.973-.791-1.764-1.764-1.764zm0 2.747a.987.987 0 01-.987-.983c0-.543.441-.984.987-.984.545 0 .986.44.986.984a.987.987 0 01-.986.983z" fill="#fff"/></svg>