<svg width="15" height="14" fill="none" xmlns="http://www.w3.org/2000/svg"><path d="M5.854 12.096c0-.413.145-.813.414-1.14a2.025 2.025 0 011.074-.671 2.15 2.15 0 011.29.077c.41.157.752.435.974.792 1.529-.628 2.102-1.614 2.102-3.488V5.622c0-2.72-1.647-4.6-4.208-4.6-2.56 0-4.207 1.88-4.207 4.6v2.384a.495.495 0 01-.161.362.57.57 0 01-.388.15h-.732a2.092 2.092 0 01-1.422-.55A1.813 1.813 0 010 6.644v-.681c0-.497.213-.973.59-1.325a2.096 2.096 0 011.422-.55h.35C2.916 1.655 4.812 0 7.5 0c2.689 0 4.584 1.655 5.138 4.088h.35a2.096 2.096 0 011.422.55c.377.351.59.828.59 1.324v.682c0 .496-.213.973-.59 1.324a2.093 2.093 0 01-1.422.55h-.226a3.813 3.813 0 01-.834 2.236 4.274 4.274 0 01-2.05 1.402c-.008.497-.228.97-.612 1.316A2.095 2.095 0 017.834 14a2.086 2.086 0 01-1.414-.57 1.807 1.807 0 01-.566-1.334zm1.098 0a.81.81 0 00.154.473c.1.14.243.249.41.313a.978.978 0 00.529.049.938.938 0 00.468-.233.836.836 0 00.25-.436.797.797 0 00-.052-.492.868.868 0 00-.337-.383.963.963 0 00-1.154.106.824.824 0 00-.268.603zm5.854-4.6h.182a.95.95 0 00.647-.25.824.824 0 00.268-.602v-.681a.824.824 0 00-.268-.603.951.951 0 00-.647-.25h-.182v2.386zM1.098 5.963v.681c0 .226.097.442.268.602a.95.95 0 00.646.25h.183V5.11h-.183a.95.95 0 00-.647.25.824.824 0 00-.267.602z" fill="#fff"/></svg>