<svg width="15" height="15" fill="none" xmlns="http://www.w3.org/2000/svg"><path d="M14.909 2.346c0-.567-.46-1.026-1.026-1.026H12.15V.418A.418.418 0 0011.73 0h-.903a.42.42 0 00-.42.418v.903H4.65V.418A.418.418 0 004.231 0h-.843a.418.418 0 00-.419.418v.903H1.114A1.024 1.024 0 00.09 2.346v3.655h.54v7.945c0 .583.472 1.055 1.055 1.055h11.571c.583 0 1.054-.472 1.054-1.055V6h.602l-.002-3.654zm-2.28 9.86c0 .583-.472 1.054-1.055 1.054h-8.15a1.054 1.054 0 01-1.055-1.054V6h10.26v6.206z" fill="#00AC4E"/><path d="M5.488 7.14h-1.68v1.74h1.68V7.14zm2.88 0h-1.68v1.74h1.68V7.14zm2.88 0h-1.68v1.74h1.68V7.14zm-5.76 3.06h-1.68v1.74h1.68V10.2zm2.88 0h-1.68v1.74h1.68V10.2zm2.88 0h-1.68v1.74h1.68V10.2z" fill="#00AC4E"/></svg>