<svg width="33" height="33" fill="none" xmlns="http://www.w3.org/2000/svg"><path fill-rule="evenodd" clip-rule="evenodd" d="M21.765 20.474l-3.913-3.934 3.934-3.912a.924.924 0 10-1.303-1.311l-3.935 3.912-3.912-3.934a.925.925 0 10-1.311 1.304l3.912 3.934-3.934 3.912a.924.924 0 101.304 1.311l3.934-3.912 3.912 3.934a.924.924 0 101.312-1.304z" fill="#000"/><mask id="a" maskUnits="userSpaceOnUse" x="11" y="11" width="12" height="12"><path fill-rule="evenodd" clip-rule="evenodd" d="M21.765 20.474l-3.913-3.934 3.934-3.912a.924.924 0 10-1.303-1.311l-3.935 3.912-3.912-3.934a.925.925 0 10-1.311 1.304l3.912 3.934-3.934 3.912a.924.924 0 101.304 1.311l3.934-3.912 3.912 3.934a.924.924 0 101.312-1.304z" fill="#fff"/></mask><g mask="url(#a)"><path fill="#00AC4E" d="M16.589.844l15.649 15.737L16.5 32.23.852 16.493z"/></g></svg>