<svg width="18" height="15" fill="none" xmlns="http://www.w3.org/2000/svg"><path fill-rule="evenodd" clip-rule="evenodd" d="M2.238.587H15.84a1.51 1.51 0 011.511 1.511v10.58a1.51 1.51 0 01-1.511 1.51H2.238a1.511 1.511 0 01-1.51-1.51V2.097A1.51 1.51 0 012.238.586zm3.92 6.96c-1.801-.9-3.92.409-3.92 2.422a2.708 2.708 0 002.708 2.708h8.187a2.708 2.708 0 002.707-2.708c0-2.013-2.118-3.322-3.918-2.422l-1.277.639a3.59 3.59 0 01-3.21 0l-1.278-.64zM2.237 3.21c0 .421.239.807.615.995l3.145 1.573a6.8 6.8 0 006.083 0l3.144-1.572a1.113 1.113 0 00-.498-2.109H3.351c-.614 0-1.113.499-1.113 1.113z" fill="#C6C6C6"/></svg>