<svg width="13" height="13" fill="none" xmlns="http://www.w3.org/2000/svg"><path fill-rule="evenodd" clip-rule="evenodd" d="M3.608 1.887A1.54 1.54 0 002.07 3.425c0 4.37 3.556 7.927 7.927 7.927a1.54 1.54 0 001.526-1.732L8.79 8.993l-.169.322c-.27.515-.465.889-.963.688-1.956-.686-3.552-2.283-4.247-4.262-.211-.465.19-.675.7-.941l.318-.167L3.802 1.9a1.54 1.54 0 00-.194-.013zm6.39 10.648c-5.024 0-9.11-4.086-9.11-9.11A2.724 2.724 0 014.49.851a.593.593 0 01.383.427l.81 3.528a.59.59 0 01-.15.542c-.08.084-.082.086-.815.47a5.885 5.885 0 002.886 2.888c.384-.734.387-.736.47-.817a.597.597 0 01.542-.15l3.529.81a.59.59 0 01.426.383 2.687 2.687 0 01.147.883c0 1.5-1.22 2.72-2.72 2.72z" fill="#C6C6C6"/></svg>