<svg width="18" height="18" fill="none" xmlns="http://www.w3.org/2000/svg"><path fill-rule="evenodd" clip-rule="evenodd" d="M4.95 3C3.875 3 3 3.875 3 4.95 3 10.491 7.508 15 13.05 15a1.952 1.952 0 001.934-2.196l-3.465-.795-.213.409c-.342.652-.59 1.126-1.221.872-2.48-.87-4.504-2.895-5.385-5.404-.268-.59.242-.856.888-1.194l.403-.21-.795-3.466A1.953 1.953 0 004.95 3zm8.1 13.5C6.681 16.5 1.5 11.319 1.5 4.95a3.453 3.453 0 014.568-3.264c.244.085.428.29.486.542L7.58 6.7a.748.748 0 01-.19.687c-.101.106-.104.108-1.034.595a7.462 7.462 0 003.66 3.662c.487-.93.49-.934.597-1.035a.757.757 0 01.687-.19l4.473 1.027c.252.057.456.24.54.484a3.413 3.413 0 01.187 1.119 3.454 3.454 0 01-3.45 3.45z" fill="#000"/><mask id="a" maskUnits="userSpaceOnUse" x="1" y="1" width="16" height="16"><path fill-rule="evenodd" clip-rule="evenodd" d="M4.95 3C3.875 3 3 3.875 3 4.95 3 10.491 7.508 15 13.05 15a1.952 1.952 0 001.934-2.196l-3.465-.795-.213.409c-.342.652-.59 1.126-1.221.872-2.48-.87-4.504-2.895-5.385-5.404-.268-.59.242-.856.888-1.194l.403-.21-.795-3.466A1.953 1.953 0 004.95 3zm8.1 13.5C6.681 16.5 1.5 11.319 1.5 4.95a3.453 3.453 0 014.568-3.264c.244.085.428.29.486.542L7.58 6.7a.748.748 0 01-.19.687c-.101.106-.104.108-1.034.595a7.462 7.462 0 003.66 3.662c.487-.93.49-.934.597-1.035a.757.757 0 01.687-.19l4.473 1.027c.252.057.456.24.54.484a3.413 3.413 0 01.187 1.119 3.454 3.454 0 01-3.45 3.45z" fill="#fff"/></mask><g mask="url(#a)"><path fill="#00AC4E" d="M0 0h18v18H0z"/></g></svg>