<svg width="22" height="21" fill="none" xmlns="http://www.w3.org/2000/svg"><path d="M20.678 8.279l-2.545-2.117V2.776a.685.685 0 00-.677-.691h-1.6a.685.685 0 00-.678.691v.927l-3.4-2.829a1.425 1.425 0 00-.913-.317c-.341 0-.664.112-.908.315l-8.9 7.407c-.405.336-.38.63-.33.774.05.144.212.387.732.387h1.219v9.74c0 .695.552 1.26 1.231 1.26h3.849c.673 0 1.2-.553 1.2-1.26v-3.995c0-.342.309-.654.647-.654h2.586c.323 0 .585.294.585.654v3.995c0 .683.578 1.26 1.263 1.26h3.787c.679 0 1.231-.565 1.231-1.26V9.44h1.219c.52 0 .681-.243.732-.387.05-.145.074-.438-.33-.774z" fill="#fff"/></svg>