<svg width="21" height="21" fill="none" xmlns="http://www.w3.org/2000/svg"><g clip-path="url(#clip0)" fill="#fff"><path d="M14.085 2.42c-3.217-3.216-8.452-3.216-11.67 0-3.217 3.218-3.217 8.453 0 11.67 2.73 2.73 6.79 3.143 9.96 1.241 0 0 .228-.136.413.048l4.21 4.21c.837.838 2.009 1.037 2.752.294l.128-.128c.743-.743.544-1.915-.294-2.752l-4.201-4.201c-.194-.194-.057-.423-.057-.423 1.901-3.17 1.488-7.229-1.241-9.958zM12.56 12.568a6.104 6.104 0 01-8.622 0 6.104 6.104 0 010-8.623 6.104 6.104 0 018.622 0 6.104 6.104 0 010 8.623z"/><path d="M7.76 12.04a.85.85 0 01-1.183.785A5.367 5.367 0 013.73 5.798a.852.852 0 011.569.664 3.662 3.662 0 001.943 4.794c.325.137.52.453.52.785z"/></g><defs><clipPath id="clip0"><path fill="#fff" transform="rotate(-90 10.173 10.17)" d="M0 0h20.335v20.335H0z"/></clipPath></defs></svg>