<svg width="21" height="21" fill="none" xmlns="http://www.w3.org/2000/svg"><g clip-path="url(#clip0)" fill="#00AC4E"><path d="M2.77 13.737h0c-3.023-3.022-3.023-7.94 0-10.962 3.021-3.022 7.94-3.022 10.961 0 2.564 2.564 2.952 6.37 1.166 9.348h0l.429.257a50.63 50.63 0 00-.43-.256h0v.002l-.002.001-.002.004-.005.01a.315.315 0 00-.013.024.904.904 0 00-.089.293.83.83 0 00.244.698s0 0 0 0l2.494 2.494 1.198 1.198.372.371.102.102.026.027.007.006.002.002h0l.354-.353-.354.354c.731.73.764 1.575.294 2.045h0l-.128.128c-.47.47-1.314.437-2.045-.294h0l-.354.353.354-.353h0l-.002-.003-.007-.006-.027-.027-.102-.102-.372-.372-1.2-1.2-2.5-2.5s0 0 0 0a.814.814 0 00-.698-.235.913.913 0 00-.309.102l-.009.005-.004.002-.001.001h-.001v.001l.255.43-.256-.43h-.001c-2.977 1.787-6.784 1.4-9.348-1.165zm10.145-.816h0a6.604 6.604 0 000-9.33l-.354.354.354-.354a6.604 6.604 0 00-9.33 0 6.604 6.604 0 000 9.33h0a6.604 6.604 0 009.33 0z" stroke="#00AC4E"/><path d="M7.76 12.041a.85.85 0 01-1.183.784A5.367 5.367 0 013.73 5.798a.852.852 0 011.569.664 3.662 3.662 0 001.943 4.794c.325.138.52.453.52.785z"/></g><defs><clipPath id="clip0"><path fill="#fff" transform="rotate(-90 10.174 10.17)" d="M0 0h20.335v20.335H0z"/></clipPath></defs></svg>