<svg width="23" height="23" fill="none" xmlns="http://www.w3.org/2000/svg"><g clip-path="url(#clip0)" fill="#fff"><path d="M15.867 6.473h1.94L14.93 1.537a.834.834 0 00-1.145-.3.834.834 0 00-.3 1.145l2.382 4.091zM9.28 2.382a.837.837 0 00-1.446-.846L4.957 6.478h1.94L9.28 2.382zm11.742 5.605H1.729c-.786 0-1.423.636-1.423 1.423v1.577c0 .787.637 1.423 1.423 1.423h.446l1.372 7.442c.173.877.973 1.573 1.805 1.573h11.765c.832 0 1.632-.696 1.804-1.573l1.382-7.446h.723c.787 0 1.423-.637 1.423-1.423V9.405a1.428 1.428 0 00-1.427-1.418zm-12.86 7.437v3.21a.803.803 0 01-.805.804.803.803 0 01-.805-.804v-4.501c0-.46.373-.805.805-.805.459 0 .804.373.804.805v1.291zm2.581 0v3.21a.802.802 0 01-.804.804.803.803 0 01-.805-.804v-4.501c0-.46.373-.805.805-.805a.82.82 0 01.804.805v1.291zm2.596 1.864v1.346a.803.803 0 01-.805.804.803.803 0 01-.804-.804v-4.5c0-.433.373-.806.804-.806.432 0 .805.346.805.805v3.155zm2.582 0v1.346a.803.803 0 01-.804.804.803.803 0 01-.805-.804v-4.5a.804.804 0 111.609-.001v3.155z"/></g><defs><clipPath id="clip0"><path fill="#fff" transform="translate(.306 .201)" d="M0 0h22.143v22.143H0z"/></clipPath></defs></svg>