<svg width="23" height="21" fill="none" xmlns="http://www.w3.org/2000/svg"><path d="M15.867 5.474h1.94L14.93.537a.834.834 0 00-1.145-.3.834.834 0 00-.3 1.145l2.382 4.092zM9.28 1.382A.837.837 0 007.834.537L4.957 5.478h1.94L9.28 1.382zm11.742 5.605H1.729c-.786 0-1.423.637-1.423 1.423v1.578c0 .786.637 1.422 1.423 1.422h.446l1.372 7.442c.173.877.973 1.573 1.805 1.573h11.765c.832 0 1.632-.696 1.804-1.573l1.382-7.446h.723c.787 0 1.423-.636 1.423-1.423V8.406a1.428 1.428 0 00-1.427-1.419zm-12.86 7.437v3.21a.803.803 0 01-.805.804.803.803 0 01-.805-.804v-4.501c0-.459.373-.804.805-.804.459 0 .804.372.804.804v1.291zm2.581 0v3.21a.802.802 0 01-.804.804.803.803 0 01-.805-.804v-4.501c0-.459.373-.804.805-.804a.82.82 0 01.804.804v1.291zm2.596 1.864v1.346a.803.803 0 01-.805.804.803.803 0 01-.804-.804v-4.5a.82.82 0 01.804-.805c.432 0 .805.345.805.804v3.155zm2.582 0v1.346a.803.803 0 01-.804.804.803.803 0 01-.805-.804v-4.5c0-.433.345-.805.805-.805.431 0 .804.345.804.804v3.155z" fill="#00AC4E"/></svg>